<?xml version="1.0" encoding="utf-8"?>
<!-- Generator: Adobe Illustrator 25.4.1, SVG Export Plug-In . SVG Version: 6.00 Build 0)  -->
<svg version="1.1" id="Layer_1" xmlns="http://www.w3.org/2000/svg" xmlns:xlink="http://www.w3.org/1999/xlink" x="0px" y="0px"
	 viewBox="0 0 70 70" style="enable-background:new 0 0 70 70;" xml:space="preserve">
<style type="text/css">
	.st0{fill-rule:evenodd;clip-rule:evenodd;fill:#231F20;}
	.st1{fill-rule:evenodd;clip-rule:evenodd;fill:#F13E2D;}
	.st2{fill-rule:evenodd;clip-rule:evenodd;fill:#FEFEFE;}
	.st3{fill-rule:evenodd;clip-rule:evenodd;fill:#A09D9D;}
	.st4{fill-rule:evenodd;clip-rule:evenodd;fill:#58585A;}
	.st5{fill-rule:evenodd;clip-rule:evenodd;fill:#363638;}
</style>
<g>
	<g>
		<path class="st0" d="M63.9,35.3c0.2,15-11.7,29.5-28.8,29.7C19,65.2,5.8,52,5.8,35.3c0-17.2,13.5-29.6,28.6-29.8
			C50.6,5.2,63.9,18.5,63.9,35.3z"/>
		<path class="st1" d="M17.5,12.5c1-0.9,2.1-1.6,3.2-2.3c3.3-2,6.9-3.3,10.7-3.8c8.5-1,16,1.3,22.4,7.1c4.9,4.4,7.8,9.9,9.1,16.4
			c0.2,1.2,0.3,2.4,0.4,3.6c0,0.4,0,0.4-0.4,0.3c-2-0.8-4-1.8-6-2.6c-1.6-0.6-3.3-1.2-5-1.5c-0.3-0.1-0.4-0.2-0.5-0.5
			c-1-4.2-4.7-7.3-8.9-7.6c-4.3-0.3-8.1,2-9.9,6C32.5,27.9,32.3,28,32,28c-5,0.2-9.9,1-14.7,2.4c-3.4,1-6.7,2.2-10,3.6
			c-0.2,0.1-0.3,0.1-0.5,0.2c0-0.4,0-0.7,0-1c0.5-6.5,2.8-12.2,7-17.2c0.2-0.3,0.5-0.5,0.7-0.7c0.1,0.2,0,0.3-0.1,0.4
			c-0.7,1.1-1.2,2.2-1.4,3.5c-0.2,1.5,0,2.9,1.1,4c0.6,0.6,1.3,1,2.1,1.2c1.6,0.3,3.1,0.1,4.5-0.5s2.6-1.4,3.6-2.4
			c1.4-1.4,2.4-3.1,2.7-5.1c0.4-2.8-1.2-4.8-3.7-5.1c-1.9-0.3-3.7,0.3-5.3,1.2C17.9,12.4,17.7,12.6,17.5,12.5z"/>
		<path class="st2" d="M16.3,38.2c2.7-0.7,5.4-1.3,8.1-1.7c1.8-0.3,3.7-0.5,5.5-0.6c0.7-0.1,1.4-0.1,2.1-0.1c0.2,0,0.3,0.1,0.4,0.3
			c1.3,2.8,3.3,4.7,6.1,5.6c3.4,1.1,6.6,0.4,9.4-1.9c0.7-0.6,1.4-1.3,1.9-2.2c0.1-0.2,0.3-0.3,0.5-0.2c3.5,0.7,6.9,1.8,10.3,3.1
			c0.5,0.2,1,0.4,1.6,0.6c0.3,0.1,0.3,0.2,0.2,0.5c-0.3,1.2-0.6,2.4-1,3.5c-0.6,1.6-1.3,3.1-2.1,4.6c-0.1,0.1-0.2,0.3-0.3,0.4
			c-0.3,0.4-0.7,0.7-1.1,1.1c-1.1,1-2.2,1.9-3.5,2.7c-2.2,1.4-4.6,2.5-7.1,3.2c-1.5,0.4-3.1,0.7-4.7,0.8c-4.2,0.3-8.3-0.4-12.2-2.2
			c-1.8-0.8-3.5-1.9-5.1-3.1c-1.6-1.3-3-2.7-4.3-4.3c-2.2-2.9-3.8-6-4.7-9.6C16.2,38.5,16.1,38.4,16.3,38.2z"/>
		<path class="st3" d="M16.3,38.2c-0.1,0.1,0,0.2,0,0.3c0.6,2.4,1.6,4.7,2.9,6.9c1.6,2.6,3.5,4.9,5.9,6.8c3.2,2.6,6.7,4.3,10.7,5.1
			c1.3,0.3,2.6,0.4,3.9,0.5c3.4,0.2,6.6-0.4,9.8-1.5c1.9-0.7,3.7-1.7,5.4-2.8c1.3-0.9,2.6-2,3.8-3.1c0.1-0.1,0.3-0.2,0.4-0.3
			c-0.2,0.6-0.6,1.1-1,1.6c-1.1,1.7-2.4,3.2-3.9,4.6c-1.6,1.6-3.5,2.9-5.4,4c-2.3,1.3-4.7,2.3-7.2,2.9c-1.5,0.4-3,0.6-4.6,0.7
			c-0.7,0-1.3,0.1-2,0.1c-0.9,0-1.8,0-2.8-0.1c-2.5-0.2-5-0.8-7.4-1.8c-3-1.2-5.8-2.9-8.3-5.1c-4.6-4.1-7.7-9.2-9.1-15.3
			c-0.1-0.3,0-0.4,0.3-0.5c2.7-1.1,5.5-2,8.3-2.8C16,38.3,16.1,38.3,16.3,38.2z"/>
		<path class="st4" d="M8.7,34c1.4-0.5,2.7-1.1,4.1-1.5c1.6-0.6,3.1-1.1,4.7-1.5c2-0.5,4-1.1,6-1.4c1.6-0.3,3.1-0.5,4.7-0.6
			c1-0.1,2-0.2,3-0.2c0.4,0,0.8-0.1,1.2-0.1c0.2,0,0.3-0.1,0.3-0.3c0.8-2,2.1-3.6,3.9-4.7c1.2-0.7,2.4-1.2,3.8-1.3
			c2.5-0.3,4.8,0.3,6.9,1.9c1.8,1.4,3,3.3,3.5,5.5c0.1,0.3,0.2,0.4,0.5,0.5c3,0.6,5.8,1.7,8.5,3c1.1,0.5,2.2,0.9,3.2,1.4
			c0.2,0.1,0.3,0.2,0.3,0.4c0.1,1.8,0,3.7-0.4,5.5c-0.1,0.3-0.2,0.2-0.4,0.1c-1.8-0.7-3.7-1.4-5.5-2c-2.3-0.8-4.6-1.4-7-1.9
			c-0.2,0-0.3,0.1-0.4,0.2c-0.8,1.3-1.7,2.3-2.9,3.1c-1.3,0.9-2.7,1.4-4.3,1.5c-2.2,0.2-4.3-0.4-6.1-1.6c-1.6-1.1-2.7-2.6-3.5-4.4
			c-0.1-0.3-0.2-0.3-0.5-0.3c-1.1,0.1-2.3,0.1-3.4,0.2c-1.5,0.1-3,0.3-4.5,0.5c-2.1,0.3-4.1,0.7-6.1,1.2c-0.8,0.2-1.5,0.5-2.2,0.6
			c-0.9,0.2-1.9,0.5-2.8,0.8c-0.2,0-0.3,0.2-0.5,0.2c-0.3,0.1-0.7,0-1-0.2c-1.8-0.8-2.9-2.2-3.2-4.2C8.5,34.2,8.5,34.1,8.7,34z"/>
		<path class="st2" d="M17.3,12.5c0.1,0,0.2-0.1,0.3-0.2c1.5-0.9,3.1-1.4,4.9-1.4c2.1,0.1,3.8,1.3,4.3,3.1c0.3,1.1,0.3,2.2-0.1,3.2
			c-0.7,2.5-2.3,4.3-4.4,5.7c-1.6,1.1-3.4,1.7-5.4,1.6c-2.3-0.1-3.9-1.6-4.3-3.7c-0.2-1.2,0-2.3,0.5-3.5c0.3-0.7,0.6-1.3,1-1.9
			c0.1-0.1,0.2-0.2,0.2-0.3c0.3-0.3,0.6-0.6,0.8-0.9C15.8,13.6,16.6,13.1,17.3,12.5z"/>
		<path class="st5" d="M8.7,33.9c-0.1,0.3,0,0.7,0.1,1c0.5,1.9,1.7,3.2,3.6,3.7c0.1,0,0.2,0,0.3,0c-0.9,0.3-1.9,0.6-2.8,1
			c-0.9,0.3-1.8,0.6-2.7,1c-0.2,0.1-0.3,0-0.3-0.2c-0.2-0.6-0.2-1.2-0.3-1.8c-0.2-1.2-0.1-2.3-0.1-3.5c0-0.3,0.1-0.4,0.3-0.5
			C7.4,34.4,8,34.1,8.7,33.9z"/>
		<path class="st0" d="M41.8,24.6c3.8,0,7,3.2,6.9,7.2c0,3.9-3.1,7.1-7,7.1s-6.9-3.2-6.9-7.1C34.8,27.8,37.9,24.5,41.8,24.6z"/>
		<path class="st2" d="M35.4,31.6c0-3.6,2.9-6.5,6.4-6.5c3.6,0,6.3,3,6.3,6.7c0,3.5-3,6.3-6.5,6.3C38.2,38.1,35.4,35.1,35.4,31.6z"
			/>
		<path class="st0" d="M41.8,26.7c2.7,0,4.9,2.3,4.9,5c0,2.8-2.2,5-4.9,5s-4.9-2.3-4.9-5.1C36.9,28.9,39.1,26.6,41.8,26.7z"/>
		<path class="st2" d="M46.3,31.7c-0.1,2.7-2.2,4.6-4.8,4.5c-2.4-0.1-4.4-2.3-4.2-4.8c0.1-2.6,2.2-4.6,4.7-4.5
			C44.4,27.2,46.4,29.3,46.3,31.7z"/>
	</g>
</g>
</svg>
